<?xml version="1.0" standalone="no"?>
<!DOCTYPE svg PUBLIC "-//W3C//DTD SVG 20010904//EN"
 "http://www.w3.org/TR/2001/REC-SVG-20010904/DTD/svg10.dtd">
<svg version="1.0" xmlns="http://www.w3.org/2000/svg"
 width="512.000000pt" height="512.000000pt" viewBox="0 0 512.000000 512.000000"
 preserveAspectRatio="xMidYMid meet">

<g transform="translate(0.000000,512.000000) scale(0.100000,-0.100000)"
fill="#000000" stroke="none">
<path d="M95 5104 c-16 -8 -38 -23 -49 -32 -48 -43 -46 80 -46 -2512 0 -2684
-6 -2472 66 -2526 l37 -29 1164 -3 c1298 -3 1205 -7 1261 66 22 29 27 46 27
92 0 47 -5 63 -29 94 -53 70 16 66 -1151 66 l-1055 0 0 2240 0 2240 1069 2
c1063 3 1070 3 1097 24 52 39 69 71 69 133 0 47 -5 64 -27 93 -56 73 34 68
-1250 68 -1026 0 -1156 -2 -1183 -16z"/>
<path d="M3800 3829 c-84 -34 -125 -140 -84 -222 8 -18 203 -223 434 -457
l418 -425 -1666 -5 c-1650 -5 -1667 -5 -1702 -25 -49 -28 -83 -97 -77 -154 5
-47 27 -83 71 -115 27 -21 30 -21 1704 -26 l1677 -5 -418 -424 c-231 -233
-427 -438 -438 -455 -38 -62 -17 -165 44 -208 36 -26 116 -35 156 -18 42 17
1168 1161 1186 1205 20 46 19 93 -2 132 -27 49 -1128 1164 -1176 1191 -43 23
-86 27 -127 11z"/>
</g>
</svg>
